<svg width="70" height="70" viewBox="0 0 70 70" fill="none" xmlns="http://www.w3.org/2000/svg">
<path d="M0 0H70V70H0V0Z" fill="#202027"/>
<path d="M27.544 46.928V58H26.088V49.744L22.408 58H21.384L17.688 49.728V58H16.232V46.928H17.8L21.896 56.08L25.992 46.928H27.544ZM33.8373 58.144C33.0159 58.144 32.2693 57.9573 31.5973 57.584C30.9359 57.2107 30.4133 56.6827 30.0293 56C29.6559 55.3067 29.4693 54.5067 29.4693 53.6C29.4693 52.704 29.6613 51.9147 30.0453 51.232C30.4399 50.5387 30.9733 50.0107 31.6453 49.648C32.3173 49.2747 33.0693 49.088 33.9013 49.088C34.7333 49.088 35.4853 49.2747 36.1573 49.648C36.8293 50.0107 37.3573 50.5333 37.7413 51.216C38.1359 51.8987 38.3333 52.6933 38.3333 53.6C38.3333 54.5067 38.1306 55.3067 37.7253 56C37.3306 56.6827 36.7919 57.2107 36.1093 57.584C35.4266 57.9573 34.6693 58.144 33.8373 58.144ZM33.8373 56.864C34.3599 56.864 34.8506 56.7413 35.3093 56.496C35.7679 56.2507 36.1359 55.8827 36.4133 55.392C36.7013 54.9013 36.8453 54.304 36.8453 53.6C36.8453 52.896 36.7066 52.2987 36.4293 51.808C36.1519 51.3173 35.7893 50.9547 35.3413 50.72C34.8933 50.4747 34.4079 50.352 33.8853 50.352C33.3519 50.352 32.8613 50.4747 32.4133 50.72C31.9759 50.9547 31.6239 51.3173 31.3573 51.808C31.0906 52.2987 30.9573 52.896 30.9573 53.6C30.9573 54.3147 31.0853 54.9173 31.3413 55.408C31.6079 55.8987 31.9599 56.2667 32.3973 56.512C32.8346 56.7467 33.3146 56.864 33.8373 56.864ZM41.7036 50.656C41.9596 50.1547 42.3223 49.7653 42.7916 49.488C43.2716 49.2107 43.853 49.072 44.5356 49.072V50.576H44.1516C42.5196 50.576 41.7036 51.4613 41.7036 53.232V58H40.2476V49.232H41.7036V50.656ZM54.2164 53.28C54.2164 53.5573 54.2004 53.8507 54.1684 54.16H47.1604C47.2137 55.024 47.507 55.7013 48.0404 56.192C48.5844 56.672 49.2404 56.912 50.0084 56.912C50.6377 56.912 51.1604 56.768 51.5764 56.48C52.003 56.1813 52.3017 55.7867 52.4724 55.296H54.0404C53.8057 56.1387 53.3364 56.8267 52.6324 57.36C51.9284 57.8827 51.0537 58.144 50.0084 58.144C49.1764 58.144 48.4297 57.9573 47.7684 57.584C47.1177 57.2107 46.6057 56.6827 46.2324 56C45.859 55.3067 45.6724 54.5067 45.6724 53.6C45.6724 52.6933 45.8537 51.8987 46.2164 51.216C46.579 50.5333 47.0857 50.0107 47.7364 49.648C48.3977 49.2747 49.155 49.088 50.0084 49.088C50.8404 49.088 51.5764 49.2693 52.2164 49.632C52.8564 49.9947 53.347 50.496 53.6884 51.136C54.0404 51.7653 54.2164 52.48 54.2164 53.28ZM52.7124 52.976C52.7124 52.4213 52.5897 51.9467 52.3444 51.552C52.099 51.1467 51.763 50.8427 51.3364 50.64C50.9204 50.4267 50.4564 50.32 49.9444 50.32C49.2084 50.32 48.579 50.5547 48.0564 51.024C47.5444 51.4933 47.251 52.144 47.1764 52.976H52.7124Z" fill="white"/>
<mask id="mask0_9_409" style="mask-type:luminance" maskUnits="userSpaceOnUse" x="23" y="12" width="25" height="23">
<path d="M47.3813 12H23V35H47.3813V12Z" fill="white"/>
</mask>
<g mask="url(#mask0_9_409)">
<mask id="mask1_9_409" style="mask-type:luminance" maskUnits="userSpaceOnUse" x="23" y="12" width="25" height="23">
<path d="M47.3813 12H23V35H47.3813V12Z" fill="white"/>
</mask>
<g mask="url(#mask1_9_409)">
<path d="M35.1907 13.9167C40.7923 13.9167 45.3495 18.2158 45.3495 23.5C45.3495 28.7843 40.7923 33.0833 35.1907 33.0833C29.5891 33.0833 25.0318 28.7843 25.0318 23.5C25.0318 18.2158 29.5891 13.9167 35.1907 13.9167ZM35.1907 12C28.4584 12 23 17.1491 23 23.5C23 29.8509 28.4584 35 35.1907 35C41.923 35 47.3813 29.8509 47.3813 23.5C47.3813 17.1491 41.923 12 35.1907 12ZM37.2225 23.5L32.651 27.8125L34.2022 29.25L40.2701 23.5L34.2022 17.75L32.651 19.1875L37.2225 23.5Z" fill="#EAEAEA"/>
</g>
</g>
</svg>
