<svg width="70" height="70" viewBox="0 0 70 70" fill="none" xmlns="http://www.w3.org/2000/svg">
<path d="M0 0H70V70H0V0Z" fill="#202027"/>
<path d="M12.824 55.52H7.96L7.064 58H5.528L9.56 46.912H11.24L15.256 58H13.72L12.824 55.52ZM12.408 54.336L10.392 48.704L8.376 54.336H12.408ZM18.4693 46.16V58H17.0133V46.16H18.4693ZM22.4068 50.864C22.7054 50.3413 23.1428 49.9147 23.7188 49.584C24.2948 49.2533 24.9508 49.088 25.6868 49.088C26.4761 49.088 27.1854 49.2747 27.8148 49.648C28.4441 50.0213 28.9401 50.5493 29.3028 51.232C29.6654 51.904 29.8468 52.688 29.8468 53.584C29.8468 54.4693 29.6654 55.2587 29.3028 55.952C28.9401 56.6453 28.4387 57.184 27.7987 57.568C27.1694 57.952 26.4654 58.144 25.6868 58.144C24.9294 58.144 24.2628 57.9787 23.6868 57.648C23.1214 57.3173 22.6948 56.896 22.4068 56.384V58H20.9508V46.16H22.4068V50.864ZM28.3588 53.584C28.3588 52.9227 28.2254 52.3467 27.9588 51.856C27.6921 51.3653 27.3294 50.992 26.8708 50.736C26.4228 50.48 25.9268 50.352 25.3828 50.352C24.8494 50.352 24.3534 50.4853 23.8948 50.752C23.4468 51.008 23.0841 51.3867 22.8068 51.888C22.5401 52.3787 22.4068 52.9493 22.4068 53.6C22.4068 54.2613 22.5401 54.8427 22.8068 55.344C23.0841 55.8347 23.4468 56.2133 23.8948 56.48C24.3534 56.736 24.8494 56.864 25.3828 56.864C25.9268 56.864 26.4228 56.736 26.8708 56.48C27.3294 56.2133 27.6921 55.8347 27.9588 55.344C28.2254 54.8427 28.3588 54.256 28.3588 53.584ZM39.5393 49.232V58H38.0833V56.704C37.8059 57.152 37.4166 57.504 36.9153 57.76C36.4246 58.0053 35.8806 58.128 35.2833 58.128C34.6006 58.128 33.9873 57.9893 33.4433 57.712C32.8993 57.424 32.4673 56.9973 32.1473 56.432C31.8379 55.8667 31.6833 55.1787 31.6833 54.368V49.232H33.1233V54.176C33.1233 55.04 33.3419 55.7067 33.7793 56.176C34.2166 56.6347 34.8139 56.864 35.5713 56.864C36.3499 56.864 36.9633 56.624 37.4113 56.144C37.8593 55.664 38.0833 54.9653 38.0833 54.048V49.232H39.5393ZM52.5416 49.072C53.2243 49.072 53.8323 49.216 54.3656 49.504C54.899 49.7813 55.3203 50.2027 55.6296 50.768C55.939 51.3333 56.0936 52.0213 56.0936 52.832V58H54.6536V53.04C54.6536 52.1653 54.435 51.4987 53.9976 51.04C53.571 50.5707 52.9896 50.336 52.2536 50.336C51.4963 50.336 50.8936 50.5813 50.4456 51.072C49.9976 51.552 49.7736 52.2507 49.7736 53.168V58H48.3336V53.04C48.3336 52.1653 48.115 51.4987 47.6776 51.04C47.251 50.5707 46.6696 50.336 45.9336 50.336C45.1763 50.336 44.5736 50.5813 44.1256 51.072C43.6776 51.552 43.4536 52.2507 43.4536 53.168V58H41.9976V49.232H43.4536V50.496C43.7416 50.0373 44.1256 49.6853 44.6056 49.44C45.0963 49.1947 45.635 49.072 46.2216 49.072C46.9576 49.072 47.6083 49.2373 48.1736 49.568C48.739 49.8987 49.1603 50.384 49.4376 51.024C49.683 50.4053 50.0883 49.9253 50.6536 49.584C51.219 49.2427 51.8483 49.072 52.5416 49.072ZM61.586 58.144C60.914 58.144 60.3113 58.032 59.778 57.808C59.2447 57.5733 58.8233 57.2533 58.514 56.848C58.2047 56.432 58.034 55.9573 58.002 55.424H59.506C59.5487 55.8613 59.7513 56.2187 60.114 56.496C60.4873 56.7733 60.9727 56.912 61.57 56.912C62.1247 56.912 62.562 56.7893 62.882 56.544C63.202 56.2987 63.362 55.9893 63.362 55.616C63.362 55.232 63.1913 54.9493 62.85 54.768C62.5087 54.576 61.9807 54.3893 61.266 54.208C60.6153 54.0373 60.082 53.8667 59.666 53.696C59.2607 53.5147 58.9087 53.2533 58.61 52.912C58.322 52.56 58.178 52.1013 58.178 51.536C58.178 51.088 58.3113 50.6773 58.578 50.304C58.8447 49.9307 59.2233 49.6373 59.714 49.424C60.2047 49.2 60.7647 49.088 61.394 49.088C62.3647 49.088 63.1487 49.3333 63.746 49.824C64.3433 50.3147 64.6633 50.9867 64.706 51.84H63.25C63.218 51.3813 63.0313 51.0133 62.69 50.736C62.3593 50.4587 61.9113 50.32 61.346 50.32C60.8233 50.32 60.4073 50.432 60.098 50.656C59.7887 50.88 59.634 51.1733 59.634 51.536C59.634 51.824 59.7247 52.064 59.906 52.256C60.098 52.4373 60.3327 52.5867 60.61 52.704C60.898 52.8107 61.2927 52.9333 61.794 53.072C62.4233 53.2427 62.9353 53.4133 63.33 53.584C63.7247 53.744 64.0607 53.9893 64.338 54.32C64.626 54.6507 64.7753 55.0827 64.786 55.616C64.786 56.096 64.6527 56.528 64.386 56.912C64.1193 57.296 63.7407 57.6 63.25 57.824C62.77 58.0373 62.2153 58.144 61.586 58.144Z" fill="white"/>
<mask id="mask0_9_421" style="mask-type:luminance" maskUnits="userSpaceOnUse" x="22" y="10" width="27" height="27">
<path d="M48.8542 10H22V36.8542H48.8542V10Z" fill="white"/>
</mask>
<g mask="url(#mask0_9_421)">
<path d="M46.2785 21.9255L48.8542 23.4271L35.4249 31.2596L22 23.4271L24.5747 21.9255L35.4249 28.2564L46.2785 21.9255ZM35.4249 33.85L24.5747 27.519L22 29.0218L35.4249 36.8542L48.8542 29.0218L46.2785 27.5202L35.4249 33.85ZM48.8542 17.8325L35.4249 10L22 17.8325L35.4249 25.665L48.8542 17.8325Z" fill="#EAEAEA"/>
</g>
</svg>
