<svg width="70" height="70" viewBox="0 0 70 70" fill="none" xmlns="http://www.w3.org/2000/svg">
<path d="M0 0H70V70H0V0Z" fill="#202027"/>
<path d="M39.0774 23.3101C37.8609 24.2924 29.8943 30.728 28.0499 32.219L24.931 29.0724L33.7984 17.984L39.0774 23.3101ZM45.2168 11.7982C42.8404 9.40061 38.986 9.40061 36.6096 11.7982C35.0427 13.3802 34.9097 15.114 34.8334 15.7288L41.3209 22.274C41.8806 22.211 43.636 22.0768 45.2168 20.482C47.5944 18.0844 47.5944 14.1958 45.2168 11.7982ZM33.8446 32.7288C31.1941 32.7288 29.9834 34.3937 28.2753 35.4764C27.0657 36.2418 25.9209 35.8533 25.3704 35.1661C25.1704 34.9199 24.5991 34.0332 25.5716 33.017L25.4271 32.8712L24.125 31.5983C22.5384 33.2504 22.8194 35.2244 23.8023 36.4483C24.9298 37.853 27.1976 38.5624 29.3474 37.2008C31.1802 36.0399 31.992 34.7648 33.8446 34.7648C35.0427 34.7648 36.1343 35.3061 37.8748 38L39.5643 36.8893C37.9534 34.3926 36.3633 32.7288 33.8446 32.7288Z" fill="#EAEAEA"/>
<path d="M8.688 52.416C8.688 51.328 8.93333 50.352 9.424 49.488C9.91467 48.6133 10.5813 47.9307 11.424 47.44C12.2773 46.9493 13.2213 46.704 14.256 46.704C15.472 46.704 16.5333 46.9973 17.44 47.584C18.3467 48.1707 19.008 49.0027 19.424 50.08H17.68C17.3707 49.408 16.9227 48.8907 16.336 48.528C15.76 48.1653 15.0667 47.984 14.256 47.984C13.4773 47.984 12.7787 48.1653 12.16 48.528C11.5413 48.8907 11.056 49.408 10.704 50.08C10.352 50.7413 10.176 51.52 10.176 52.416C10.176 53.3013 10.352 54.08 10.704 54.752C11.056 55.4133 11.5413 55.9253 12.16 56.288C12.7787 56.6507 13.4773 56.832 14.256 56.832C15.0667 56.832 15.76 56.656 16.336 56.304C16.9227 55.9413 17.3707 55.424 17.68 54.752H19.424C19.008 55.8187 18.3467 56.6453 17.44 57.232C16.5333 57.808 15.472 58.096 14.256 58.096C13.2213 58.096 12.2773 57.856 11.424 57.376C10.5813 56.8853 9.91467 56.208 9.424 55.344C8.93333 54.48 8.688 53.504 8.688 52.416ZM25.9434 49.072C26.6047 49.072 27.202 49.216 27.7354 49.504C28.2687 49.7813 28.6847 50.2027 28.9834 50.768C29.2927 51.3333 29.4474 52.0213 29.4474 52.832V58H28.0074V53.04C28.0074 52.1653 27.7887 51.4987 27.3514 51.04C26.914 50.5707 26.3167 50.336 25.5594 50.336C24.7914 50.336 24.178 50.576 23.7194 51.056C23.2714 51.536 23.0474 52.2347 23.0474 53.152V58H21.5914V46.16H23.0474V50.48C23.3354 50.032 23.73 49.6853 24.2314 49.44C24.7434 49.1947 25.314 49.072 25.9434 49.072ZM31.2818 53.584C31.2818 52.688 31.4631 51.904 31.8258 51.232C32.1884 50.5493 32.6844 50.0213 33.3138 49.648C33.9538 49.2747 34.6631 49.088 35.4418 49.088C36.2098 49.088 36.8764 49.2533 37.4418 49.584C38.0071 49.9147 38.4284 50.3307 38.7058 50.832V49.232H40.1778V58H38.7058V56.368C38.4178 56.88 37.9858 57.3067 37.4098 57.648C36.8444 57.9787 36.1831 58.144 35.4258 58.144C34.6471 58.144 33.9431 57.952 33.3138 57.568C32.6844 57.184 32.1884 56.6453 31.8258 55.952C31.4631 55.2587 31.2818 54.4693 31.2818 53.584ZM38.7058 53.6C38.7058 52.9387 38.5724 52.3627 38.3058 51.872C38.0391 51.3813 37.6764 51.008 37.2178 50.752C36.7698 50.4853 36.2738 50.352 35.7298 50.352C35.1858 50.352 34.6898 50.48 34.2418 50.736C33.7938 50.992 33.4364 51.3653 33.1698 51.856C32.9031 52.3467 32.7698 52.9227 32.7698 53.584C32.7698 54.256 32.9031 54.8427 33.1698 55.344C33.4364 55.8347 33.7938 56.2133 34.2418 56.48C34.6898 56.736 35.1858 56.864 35.7298 56.864C36.2738 56.864 36.7698 56.736 37.2178 56.48C37.6764 56.2133 38.0391 55.8347 38.3058 55.344C38.5724 54.8427 38.7058 54.2613 38.7058 53.6ZM44.0943 50.656C44.3503 50.1547 44.7129 49.7653 45.1823 49.488C45.6623 49.2107 46.2436 49.072 46.9263 49.072V50.576H46.5423C44.9103 50.576 44.0943 51.4613 44.0943 53.232V58H42.6383V49.232H44.0943V50.656ZM50.383 50.432V55.6C50.383 56.0267 50.4737 56.3307 50.655 56.512C50.8363 56.6827 51.151 56.768 51.599 56.768H52.671V58H51.359C50.5483 58 49.9403 57.8133 49.535 57.44C49.1297 57.0667 48.927 56.4533 48.927 55.6V50.432H47.791V49.232H48.927V47.024H50.383V49.232H52.671V50.432H50.383ZM57.5391 58.144C56.8671 58.144 56.2645 58.032 55.7311 57.808C55.1978 57.5733 54.7765 57.2533 54.4671 56.848C54.1578 56.432 53.9871 55.9573 53.9551 55.424H55.4591C55.5018 55.8613 55.7045 56.2187 56.0671 56.496C56.4405 56.7733 56.9258 56.912 57.5231 56.912C58.0778 56.912 58.5151 56.7893 58.8351 56.544C59.1551 56.2987 59.3151 55.9893 59.3151 55.616C59.3151 55.232 59.1445 54.9493 58.8031 54.768C58.4618 54.576 57.9338 54.3893 57.2191 54.208C56.5685 54.0373 56.0351 53.8667 55.6191 53.696C55.2138 53.5147 54.8618 53.2533 54.5631 52.912C54.2751 52.56 54.1311 52.1013 54.1311 51.536C54.1311 51.088 54.2645 50.6773 54.5311 50.304C54.7978 49.9307 55.1765 49.6373 55.6671 49.424C56.1578 49.2 56.7178 49.088 57.3471 49.088C58.3178 49.088 59.1018 49.3333 59.6991 49.824C60.2965 50.3147 60.6165 50.9867 60.6591 51.84H59.2031C59.1711 51.3813 58.9845 51.0133 58.6431 50.736C58.3125 50.4587 57.8645 50.32 57.2991 50.32C56.7765 50.32 56.3605 50.432 56.0511 50.656C55.7418 50.88 55.5871 51.1733 55.5871 51.536C55.5871 51.824 55.6778 52.064 55.8591 52.256C56.0511 52.4373 56.2858 52.5867 56.5631 52.704C56.8511 52.8107 57.2458 52.9333 57.7471 53.072C58.3765 53.2427 58.8885 53.4133 59.2831 53.584C59.6778 53.744 60.0138 53.9893 60.2911 54.32C60.5791 54.6507 60.7285 55.0827 60.7391 55.616C60.7391 56.096 60.6058 56.528 60.3391 56.912C60.0725 57.296 59.6938 57.6 59.2031 57.824C58.7231 58.0373 58.1685 58.144 57.5391 58.144Z" fill="white"/>
</svg>
